<?xml version="1.0" encoding="utf-8"?>
<!-- Generator: Adobe Illustrator 21.0.2, SVG Export Plug-In . SVG Version: 6.00 Build 0)  -->
<svg version="1.1" id="Layer_1" xmlns="http://www.w3.org/2000/svg" xmlns:xlink="http://www.w3.org/1999/xlink" x="0px" y="0px"
	 viewBox="0 0 841.9 595.3" style="enable-background:new 0 0 841.9 595.3;" xml:space="preserve">
<style type="text/css">
	.st0{fill:#FFFFFF;}
</style>
<g id="_x39_oqpHi.tif">
	<g>
		<path class="st0" d="M510.6,209.1c9.1,2.4,17.8,4.6,26.5,6.9c3.1,0.8,6.1,2,9.2,2.9c0.7,0.2,1.5,0.4,2.2,0.3
			c8.3-0.9,16.7-1.7,24.7-4.5c11.7-4.1,21.4-11,27.2-22.3c4.1-7.9,5.6-16.4,5.4-25.3c-0.1-6.1,1.8-11.5,6.6-15.4
			c4.1-3.4,9.1-4.5,14.5-3.7c6.2,1,10.8,4.4,13,10c1.5,3.8,1.6,8.3,1.5,12.5c-0.3,7.5-1,15-3.2,22.2c-2.4,7.9-5.5,15.5-10,22.6
			c-5.3,8.2-11.9,15.2-19.7,20.9c-2.8,2.1-5.9,3.9-9.2,6c1.9,1.1,3.8,2.2,5.7,3.3c7.3,4.6,14.8,9,21.8,14
			c7.3,5.3,14.2,11.3,21.1,17.1c10.3,8.7,19.5,18.5,27.6,29.3c0.5,0.7,0.5,2.4,0,3.1c-5.5,6.4-10.9,12.8-16.7,18.9
			c-5,5.2-10.3,10.2-15.8,14.9c-3.8,3.3-8,6.3-12.1,9.3c-4.9,3.6-9.8,7.3-14.9,10.6c-5.5,3.6-11.2,6.7-16.9,10.2c1.5,1,3,2,4.6,3
			c7.4,4.4,13.6,10.1,18.9,16.7c3.7,4.6,6.7,10,9.4,15.3c2.1,4,3.4,8.4,4.9,12.7c3.6,10.7,4.7,21.8,3.5,33c-0.5,4.8-3.7,8.6-8,11
			c-7.4,4.2-14.6,3.6-21-1.9c-3.5-3-5.9-7-5.8-11.9c0.2-9.3-1.3-18.3-5.1-26.7c-3-6.8-7.8-12.3-14-16.7c-4.8-3.4-9.9-6-15.5-7.6
			c-5.7-1.6-11.7-2.5-17.5-3.6c-7-1.3-13.3,1.8-19.8,3.5c-7.8,2-15.5,4.1-23.6,6.2c1.2,1.1,2.4,2.2,3.6,3.1
			c8.1,6.5,15,14.2,20.4,22.9c4.5,7.3,8.4,15,11.4,23c5,13.3,7.1,27.3,7.3,41.5c0,3.5,0,7-0.5,10.4c-1,7.1-8.5,13-15.5,13.4
			c-7.7,0.4-13.4-2.8-17.2-9.3c-1.4-2.4-2.1-5.5-2.2-8.3c-0.3-9.2-0.7-18.3-3-27.2c-1.4-5.3-3.6-10.3-5.6-15.4
			c-2.7-6.8-7.2-12.6-12-18c-4.6-5.2-9.8-9.6-15.9-12.9c-5.2-2.9-10.5-5.9-16.1-7.9c-7-2.5-14.3-4.1-21.5-5.8
			c-10.6-2.5-21.2-1.9-31.9,0.2c-8.8,1.7-17.2,4.2-25.3,7.7c-8.1,3.5-15.6,8.1-22.2,14.1c-5.5,5.1-10.3,10.8-14,17.3
			c-5.4,9.5-8.9,19.7-9.9,30.7c-0.7,7.3-1.2,14.6-2.2,21.8c-0.7,5-4.1,8.4-8.3,10.7c-5.7,3.3-11.8,3.2-17.4,0c-6-3.5-9.2-9-9.1-16.1
			c0.1-5.5,0.4-11,1.1-16.4c1-7.2,1.9-14.5,3.9-21.5c2.1-7.4,4.7-14.9,8.2-21.7c3.4-6.8,7.8-13.2,12.5-19.1
			c5.1-6.3,11.1-11.8,16.6-17.5c-2.3-0.6-5.2-1.4-8.1-2.2c-6.7-1.8-13.5-3.4-20.2-5.2c-1.9-0.5-3.7-1.7-5.6-1.9
			c-6-0.6-12.1-0.5-18,1.3c-5.8,1.7-11.8,3.3-17.3,5.9c-7.7,3.6-14,9.1-18.4,16.7c-5,8.6-6.7,17.8-6.8,27.4
			c-0.1,7.1-2.4,12.9-8.3,16.8c-4.6,3-9.8,3.8-15.2,1.9c-4.7-1.6-8.1-4.7-10.3-9c-1.1-2.1-1.7-4.6-1.8-6.9c0-8.6,0.7-17.1,2.7-25.5
			c2-8.3,5-16.1,9.3-23.3c4.7-7.8,10.6-14.9,18-20.4c3.9-2.9,7.9-5.6,11.8-8.4c-29.8-17-56.4-37.7-77.6-65.5
			c21.1-27.7,47.8-48.4,77.8-65.4c-4-2.8-7.8-5.3-11.5-8.1c-7.6-5.7-13.6-13-18.3-21.2c-7.7-13.4-11.5-28.1-11.5-43.7
			c0-4.2-0.2-8.3,2.1-12.3c3.8-6.4,11-9.7,18.1-8.6c9.5,1.4,15.3,9.3,15.3,18c0,6.6,0.5,13.2,2.6,19.4c1.7,5.1,4.1,10,7.7,14.3
			c3.4,4,7.2,7.3,11.7,10c6.3,3.8,13.1,6.3,20.3,7.4c4.6,0.7,9.2,1.3,13.8,2c0.8,0.1,1.7,0.2,2.4-0.1c5.8-1.8,11.5-3.8,17.3-5.4
			c5.6-1.6,11.3-2.7,16.9-4.1c0.6-0.2,1.2-0.4,1.7-0.6c-4.6-4.5-9.2-8.9-13.6-13.6c-4.9-5.2-9.3-10.8-12.5-17.2
			c-2.2-4.4-4.4-8.8-6.5-13.3c-3.9-8.5-6.5-17.4-7.6-26.7c-1.1-8.6-1.8-17.2-2-25.8c-0.2-7.5,3.6-13.1,10.2-16.3
			c3.2-1.5,6.8-2,10.5-1.3c9.9,1.8,14.7,9.9,14.8,18.3c0.1,8.9,0.6,17.9,3,26.4c1.6,5.6,4,11,6.3,16.4c3.4,7.9,8.6,14.6,14.9,20.4
			c5.5,5,11.3,9.5,18.1,12.6c4.4,2,8.7,4.4,13.4,5.8c7.6,2.2,15.5,3.6,23.2,5.3c8,1.7,15.8,0.7,23.8-0.4c9.5-1.3,18.6-4,27.4-7.7
			c4.9-2.1,9.6-4.6,14.1-7.5c6.9-4.4,13.1-9.7,17.7-16.5c3.1-4.6,6.4-9.2,8.7-14.3c2.4-5.5,4.4-11.3,5.5-17.2
			c1.4-7.8,2.1-15.8,2.6-23.8c0.5-7.6,3.5-13.4,10.4-16.6c6.4-2.9,14.2-1.9,19.7,3.3c4.4,4.2,5.9,9.5,5.6,15.3
			c-0.5,10-1.2,19.9-3.4,29.7c-1.6,7.2-3.8,14.2-6.6,21c-3.5,8.7-8.1,16.8-13.9,24.1c-4.2,5.3-9.2,9.9-13.9,14.8
			C514.5,206,512.6,207.4,510.6,209.1z M428.2,236.8c-38.4-1.2-71,32-70.9,70.3c0.1,39.8,31.6,70.5,69.2,71.2
			c41.3,0.7,71.5-31.2,72.6-68.9C500.3,269.4,467.5,235.8,428.2,236.8z M516.3,247.1c24.6,40.5,24.5,80.3,0.1,120.4
			c5.7-1.6,11-2.9,16.2-4.6c5.6-1.8,11-4.1,16.5-6.1c2.4-0.9,4.9-1.5,7.2-2.7c3.8-2,8.9-2.6,9.3-8.4c0.1-1,0.2-2,0.5-2.9
			c2.8-10.1,4.5-20.3,4.3-30.7c-0.1-7.3,0-14.7-0.8-21.9c-0.8-7-2.5-13.9-4-20.8c-0.4-1.9-1-4.5-2.4-5.3c-5.2-2.7-10.6-5-16.1-7.1
			c-4.8-1.9-9.7-3.3-14.6-4.9C527.4,250.4,522.2,248.9,516.3,247.1z M339.8,247.4c-1.1,0.3-2,0.6-2.9,0.9c-8.3,2.6-16.6,5-24.8,7.7
			c-4.6,1.5-9.1,3.4-13.6,5.3c-1.9,0.8-4.3,1.1-4.9,4c-1.5,7-3.4,14-4.9,21c-2.1,10.2-2.3,20.5-1.5,30.8c0.5,5.5,1.4,10.9,2.5,16.3
			c1.2,5.8,2.8,11.6,4.3,17.3c0.1,0.4,0.7,0.9,1.2,1.1c5.9,2.3,11.8,4.8,17.8,6.9c8.5,3,17.1,5.7,25.7,8.5c0.4,0.1,0.9,0,1.2,0
			C315.5,327.3,315.5,287.6,339.8,247.4z M251.9,327.7c0-14,0-27,0-40.3c-9,5.7-16.8,12.7-24.8,20
			C235.4,314.2,243.5,320.8,251.9,327.7z M605.9,325.6c2.3-0.3,15.6-11,23.1-18.6c-7.6-6.3-15.2-12.5-23.1-19
			C605.9,301.1,605.9,313.4,605.9,325.6z"/>
		<path class="st0" d="M463.7,307.7c-0.2,19.5-15.9,35.1-35.3,35.2c-19.2,0.2-35.6-15.5-35.7-35.4c-0.1-19.7,16-35.8,35.8-35.7
			C448.1,271.9,463.9,288.4,463.7,307.7z"/>
	</g>
</g>
</svg>
